<svg width="360" height="420" viewBox="0 0 360 420" fill="none" xmlns="http://www.w3.org/2000/svg">
    <path
        d="M-122.874 -80.6375L-338.114 187.556L-123.032 360.171C-107.59 368.839 -91.0996 366.804 -78.1971 361.985C-65.2945 357.166 -53.7118 349.881 -38.7036 349.009C-10.8288 347.39 20.1712 367.727 47.7829 386.133C75.3943 404.539 107.957 423.407 134.148 418.145C149.301 415.101 159.381 404.248 174.275 400.728C194.133 396.035 218.858 404.913 241.982 411.721C265.106 418.528 291.079 422.929 305.16 410.793C318.294 399.473 316.513 377.699 323.667 361.761C327.481 353.513 333.69 346.873 341.808 342.362C349.926 337.852 359.731 335.593 370.458 335.763L377.759 325.039L386.648 315.589C384.161 305.154 384.243 295.092 386.889 286.19C389.535 277.289 394.674 269.789 401.901 264.28C415.913 253.846 437.555 250.871 445.764 235.598C454.564 219.224 444.645 194.819 432.993 173.717C421.341 152.615 407.321 130.398 407.604 109.995C407.816 94.6926 416.23 82.5021 415.922 67.049C415.389 40.3401 389.92 12.6341 365.973 -10.3382C342.026 -33.3106 315.46 -59.1731 311.007 -86.7376C308.61 -101.579 313.215 -114.464 315.126 -128.104C317.037 -141.743 315.455 -158.283 303.649 -171.483L88.5675 -344.098L-122.874 -80.6375Z"
        fill="#7E57C2" />
</svg>
